FILE "GAME.ISO" BINARY
  TRACK 01 MODE2/2352
    INDEX 01 00:00:00
  TRACK 02 AUDIO
    PREGAP 00:02:00
    INDEX 01 00:20:50
  TRACK 03 AUDIO
    INDEX 00 02:42:55
    INDEX 01 02:44:55
  TRACK 04 AUDIO
    INDEX 00 07:15:04
    INDEX 01 07:17:04
